External Loads File
version=1
nRows=78
nColumns=13
Range=5.000000e-03-10 seconds
endheader
time 	forceRightX 	forceRightY 	forceRightZ 	pointRightX 	pointRightY 	pointRightZ 	forceLeftX 	forceLeftY 	forceLeftZ 	pointLeftX 	pointLeftY 	pointLeftZ 		
7.505000 104.813929 111.564946 -0.000000 0.168723 0.183838 -0.139997 -148.880819 58.869749 -0.000000 0.403283 0.453186 -0.374064
7.510000 87.411234 96.488839 -0.000000 0.163632 0.189549 -0.140202 -164.998590 81.431885 -0.000000 0.406986 0.446725 -0.374240
7.515000 71.676567 85.552931 -0.000000 0.159307 0.195656 -0.140390 -184.093525 106.926804 -0.000000 0.410154 0.440096 -0.374125
7.520000 58.048008 78.452033 -0.000000 0.155124 0.201976 -0.140747 -206.679778 136.697390 -0.000000 0.412826 0.432878 -0.374111
7.525000 46.762841 74.859561 -0.000000 0.151288 0.208773 -0.141256 -233.156898 171.717467 -0.000000 0.415074 0.424908 -0.374191
7.530000 37.942142 74.282382 -0.000000 0.147946 0.216074 -0.141629 -263.541980 212.440794 -0.000000 0.417031 0.416155 -0.374505
7.535000 31.510976 76.052721 -0.000000 0.145123 0.223671 -0.141870 -297.444700 258.491617 -0.000000 0.418746 0.406699 -0.374837
7.540000 27.146899 79.385791 -0.000000 0.142844 0.231385 -0.141930 -334.296689 308.530933 -0.000000 0.420155 0.396887 -0.374992
7.545000 24.572850 83.401065 -0.000000 0.141071 0.239602 -0.142060 -372.470769 361.588291 -0.000000 0.421504 0.386828 -0.374517
7.550000 23.231987 87.369274 -0.000000 0.139854 0.247946 -0.142037 -410.837439 415.802701 -0.000000 0.422618 0.376456 -0.374077
7.555000 22.613123 90.693509 -0.000000 0.139126 0.256525 -0.142121 -448.123662 469.699806 -0.000000 0.423216 0.365899 -0.373850
7.560000 22.226740 92.991443 -0.000000 0.139116 0.265277 -0.142178 -483.523266 522.002301 -0.000000 0.423255 0.355261 -0.373746
7.565000 21.798023 94.050933 -0.000000 0.139519 0.274157 -0.142140 -515.821098 572.611862 -0.000000 0.422826 0.344456 -0.373600
7.570000 21.009013 93.849644 -0.000000 0.140600 0.283131 -0.141904 -544.585974 621.354729 -0.000000 0.421953 0.333587 -0.373667
7.575000 19.703450 92.488780 -0.000000 0.142076 0.292201 -0.141901 -568.729873 668.933866 -0.000000 0.420505 0.322596 -0.373772
7.580000 17.714852 90.232112 -0.000000 0.144161 0.301335 -0.141640 -587.565964 715.438360 -0.000000 0.418634 0.311718 -0.373415
7.585000 15.179086 87.395725 -0.000000 0.146796 0.310499 -0.141478 -598.807825 761.613158 -0.000000 0.415993 0.300762 -0.373566
7.590000 12.204430 84.337478 -0.000000 0.149892 0.319617 -0.141487 -601.459359 806.545168 -0.000000 0.412949 0.290041 -0.373773
7.595000 9.174092 81.328327 -0.000000 0.153037 0.328899 -0.142192 -593.162750 850.080930 -0.000000 0.409370 0.279447 -0.374266
7.600000 6.248833 78.557718 -0.000000 0.157243 0.337859 -0.142294 -573.963973 890.124267 -0.000000 0.405133 0.269137 -0.373832
7.605000 3.695595 76.058603 -0.000000 0.161834 0.347029 -0.142128 -541.978227 925.803190 -0.000000 0.400366 0.259230 -0.373750
7.610000 1.457005 73.779617 -0.000000 0.166888 0.355999 -0.141938 -497.587378 954.871021 -0.000000 0.395006 0.249532 -0.373778
7.615000 -0.628146 71.608285 -0.000000 0.172476 0.364931 -0.141737 -441.456886 975.463045 -0.000000 0.389080 0.240202 -0.373836
7.620000 -2.719363 69.409639 -0.000000 0.178446 0.374375 -0.141650 -373.876438 986.399859 -0.000000 0.382719 0.231153 -0.373804
7.625000 -5.368335 67.001854 -0.000000 0.184869 0.382872 -0.141591 -301.659949 984.776844 -0.000000 0.375923 0.222193 -0.373890
7.630000 -8.637885 64.151331 -0.000000 0.191831 0.391399 -0.141539 -226.515558 970.951822 -0.000000 0.368775 0.213919 -0.374015
7.635000 -12.647922 60.570678 -0.000000 0.199095 0.399737 -0.141497 -152.637013 945.354064 -0.000000 0.361412 0.206138 -0.374114
7.640000 -17.331200 55.985043 -0.000000 0.206749 0.407852 -0.141364 -82.675221 909.651532 -0.000000 0.353834 0.198877 -0.374093
7.645000 -22.562292 50.193668 -0.000000 0.214773 0.415691 -0.141115 -18.469066 866.155105 -0.000000 0.345919 0.192131 -0.374148
7.650000 -28.227764 43.143299 -0.000000 0.223097 0.423401 -0.140804 38.586627 817.544519 -0.000000 0.337711 0.185897 -0.374390
7.655000 -34.200558 34.992909 -0.000000 0.231581 0.430877 -0.140698 87.227861 766.689727 -0.000000 0.329301 0.180111 -0.374509
7.660000 -40.187940 26.238821 -0.000000 0.240591 0.437863 -0.139834 128.561893 716.080002 -0.000000 0.320604 0.174862 -0.374544
7.665000 -45.924686 17.465375 -0.000000 0.249317 0.444646 -0.140179 161.643237 667.989803 -0.000000 0.311643 0.170029 -0.374784
7.670000 -50.968415 9.474540 -0.000000 0.258284 0.450762 -0.140118 188.163817 623.585843 -0.000000 0.302508 0.166085 -0.375019
7.675000 -54.865204 2.932992 -0.000000 0.267034 0.456330 -0.140320 208.401611 583.639711 -0.000000 0.293288 0.162833 -0.374983
7.680000 -57.184226 -1.490545 -0.000000 0.275929 0.461135 -0.140089 224.413148 547.893353 -0.000000 0.283899 0.159901 -0.375079
7.685000 -57.654002 -3.485679 -0.000000 0.284656 0.465493 -0.140109 236.596502 516.340664 -0.000000 0.274318 0.157692 -0.375612
7.690000 -56.185872 -2.856909 -0.000000 0.293843 0.469234 -0.139890 246.448975 488.138097 -0.000000 0.264769 0.156124 -0.375881
7.695000 -52.869086 0.183142 -0.000000 0.302816 0.472214 -0.139917 253.554305 462.920230 -0.000000 0.255231 0.155321 -0.376032
7.700000 -47.978590 5.416615 -0.000000 0.311771 0.474414 -0.140027 258.470694 439.603007 -0.000000 0.245796 0.155048 -0.376254
7.705000 -41.925597 12.550299 -0.000000 0.320577 0.475918 -0.140073 261.264303 417.227145 -0.000000 0.236467 0.155456 -0.376524
7.710000 -35.201213 21.339796 -0.000000 0.329119 0.476780 -0.140038 261.867008 394.946402 -0.000000 0.227270 0.156537 -0.376649
7.715000 -28.314604 31.669464 -0.000000 0.337396 0.476910 -0.139776 260.170358 372.106642 -0.000000 0.218367 0.158262 -0.376834
7.720000 -21.720190 43.608929 -0.000000 0.345355 0.476391 -0.139471 256.234290 348.201575 -0.000000 0.209712 0.160774 -0.376961
7.725000 -15.807246 57.366765 -0.000000 0.352923 0.475311 -0.138916 249.990597 323.193565 -0.000000 0.201354 0.164017 -0.376992
7.730000 -10.812392 73.260400 -0.000000 0.360076 0.473105 -0.138312 241.769319 297.180063 -0.000000 0.193348 0.167793 -0.376968
7.735000 -6.880675 91.650234 -0.000000 0.366786 0.470297 -0.137626 231.684802 270.799373 -0.000000 0.185766 0.172266 -0.377105
7.740000 -4.044311 112.950018 -0.000000 0.372936 0.467067 -0.136574 219.944497 245.008102 -0.000000 0.178608 0.177279 -0.377339
7.745000 -2.097098 137.530229 -0.000000 0.378679 0.463072 -0.135587 207.285551 220.671154 -0.000000 0.171965 0.182863 -0.377352
7.750000 -1.036488 165.536334 -0.000000 0.383900 0.458326 -0.134432 194.223205 199.007991 -0.000000 0.165808 0.188875 -0.377543
7.755000 -1.226595 196.856037 -0.000000 0.388531 0.453265 -0.133484 181.253218 181.174919 -0.000000 0.160094 0.195356 -0.377750
7.760000 -2.939156 231.207627 -0.000000 0.392886 0.447528 -0.133072 169.225234 167.706635 -0.000000 0.154828 0.202250 -0.377853
7.765000 -6.894010 268.198520 -0.000000 0.396780 0.441245 -0.132620 158.566521 159.125822 -0.000000 0.149983 0.209562 -0.377962
7.770000 -13.571844 307.320506 -0.000000 0.400280 0.434144 -0.131897 149.728220 155.358298 -0.000000 0.145604 0.217119 -0.378074
7.775000 -23.239328 347.910019 -0.000000 0.403721 0.426508 -0.131535 142.979962 155.898218 -0.000000 0.141697 0.224961 -0.378164
7.780000 -35.869471 389.132272 -0.000000 0.406961 0.418292 -0.131235 138.421226 159.858485 -0.000000 0.138281 0.233156 -0.378188
7.785000 -51.231750 430.013549 -0.000000 0.409949 0.409557 -0.131150 135.935749 166.090171 -0.000000 0.135418 0.241628 -0.378055
7.790000 -68.838941 469.522657 -0.000000 0.412756 0.400430 -0.131061 135.231063 173.203523 -0.000000 0.133122 0.250232 -0.377922
7.795000 -87.929863 506.694275 -0.000000 0.415158 0.390967 -0.131051 135.882179 179.666886 -0.000000 0.131560 0.259080 -0.377840
7.800000 -107.331375 540.824478 -0.000000 0.417176 0.381166 -0.131009 137.440741 183.993834 -0.000000 0.130653 0.268161 -0.377815
7.805000 -126.820281 571.328654 -0.000000 0.418509 0.371217 -0.131151 139.055996 185.307837 -0.000000 0.130420 0.277277 -0.377824
7.810000 -145.359569 598.097842 -0.000000 0.419581 0.361281 -0.131486 140.198027 182.997700 -0.000000 0.130826 0.286525 -0.377762
7.815000 -161.799905 621.382413 -0.000000 0.420169 0.351010 -0.131706 140.503836 176.917333 -0.000000 0.131947 0.295828 -0.377606
7.820000 -175.622612 641.513941 -0.000000 0.420140 0.340445 -0.131805 139.642660 167.438172 -0.000000 0.133730 0.305104 -0.377170
7.825000 -186.591094 658.862109 -0.000000 0.419529 0.329948 -0.131800 137.447382 155.180235 -0.000000 0.136055 0.314491 -0.376986
7.830000 -194.265187 673.934348 -0.000000 0.418339 0.319300 -0.131805 133.966588 140.754764 -0.000000 0.138834 0.323724 -0.376999
7.835000 -198.090167 687.333198 -0.000000 0.416653 0.308667 -0.131698 129.350326 124.717188 -0.000000 0.142093 0.333008 -0.376926
7.840000 -197.639193 699.566073 -0.000000 0.414311 0.298027 -0.131721 123.751823 107.602105 -0.000000 0.145655 0.342319 -0.375873
7.845000 -193.190226 710.758963 -0.000000 0.411486 0.287597 -0.131578 117.230150 89.999136 -0.000000 0.149946 0.351533 -0.375645
7.850000 -185.037248 720.840833 -0.000000 0.407797 0.277449 -0.132122 109.868627 72.357120 -0.000000 0.154578 0.360392 -0.375431
7.855000 -171.904355 729.969488 -0.000000 0.403481 0.267517 -0.132142 101.842331 54.716810 -0.000000 0.159826 0.369098 -0.375044
7.860000 -153.917866 737.783790 -0.000000 0.398779 0.257853 -0.132440 93.030838 37.211287 -0.000000 0.165469 0.377706 -0.374729
7.865000 -130.535036 743.965483 -0.000000 0.393509 0.248407 -0.132744 83.238897 19.792586 -0.000000 0.171588 0.386271 -0.374442
7.870000 -102.625396 747.848073 -0.000000 0.387709 0.239214 -0.132941 72.134507 2.512488 -0.000000 0.178223 0.394584 -0.374279
7.875000 -71.573923 748.820658 -0.000000 0.381347 0.230334 -0.133329 59.441295 -14.617069 -0.000000 0.185314 0.402375 -0.374193
7.880000 -38.482500 746.563607 -0.000000 0.374448 0.221916 -0.133520 45.014803 -31.668237 -0.000000 0.192785 0.409720 -0.374004
7.885000 -4.151764 741.006637 -0.000000 0.367432 0.213807 -0.133977 28.868583 -48.740755 -0.000000 0.200731 0.416848 -0.373973
7.890000 31.659005 732.192078 -0.000000 0.359801 0.205865 -0.134308 11.131332 -65.921230 -0.000000 0.209098 0.423735 -0.373884
